<svg version="1.1" id="Layer_1" xmlns="http://www.w3.org/2000/svg" xmlns:xlink="http://www.w3.org/1999/xlink" x="0px" y="0px"
	 viewBox="0 0 496 496" style="enable-background:new 0 0 496 496;" xml:space="preserve">
<g>
	<g>
		<g>
			<path d="M467.152,248c-9.688,0-18.64,4.832-23.96,12.936l-45.832,69.872l-13.84-16.912C368.352,295.352,360,271.944,360,248
				c0-23.944,8.352-47.352,23.512-65.888l5.872-7.176l52.824,47.432c6.912,6.208,15.84,9.632,25.136,9.632
				C483.152,232,496,219.152,496,203.344c0-9.864-4.96-18.896-13.272-24.176l-63.648-40.504l3.128-3.824
				c6.312-7.736,9.792-17.488,9.792-27.464C432,83.464,412.536,64,388.624,64c-7.544,0-14.952,2-21.464,5.704L301.864,9.848
				C294.928,3.504,285.928,0,276.528,0C260.8,0,248,12.8,248,28.528c0,9.976,5.08,19.064,13.576,24.296L333.048,96.8l-19.152,15.672
				C295.352,127.648,271.944,136,248,136c-23.944,0-47.352-8.352-65.888-23.512l-7.176-5.872l47.432-52.824
				C228.576,46.88,232,37.952,232,28.656C232,12.848,219.152,0,203.344,0c-9.864,0-18.896,4.96-24.184,13.272L138.656,76.92
				l-3.824-3.128C127.104,67.48,117.352,64,107.376,64C83.464,64,64,83.464,64,107.376c0,7.544,2,14.952,5.704,21.464L9.848,194.136
				C3.496,201.072,0,210.072,0,219.472C0,235.2,12.8,248,28.528,248c9.976,0,19.064-5.08,24.296-13.576l43.984-71.472l15.664,19.152
				C127.648,200.648,136,224.056,136,248c0,23.944-8.352,47.352-23.52,65.888l-6.408,7.824L53.76,273.76
				c-6.864-6.288-15.776-9.76-25.104-9.76C12.848,264,0,276.848,0,292.656c0,9.856,4.96,18.896,13.272,24.176l63.648,40.504
				l-3.128,3.824C67.48,368.896,64,378.648,64,388.624C64,412.536,83.464,432,107.376,432c7.408,0,14.688-1.936,21.112-5.512
				l65.744,59.792c6.88,6.264,15.808,9.72,25.12,9.72c15.8,0,28.648-12.848,28.648-28.84c0-9.688-4.84-18.64-12.936-23.96
				l-69.872-45.832l16.912-13.84C200.648,368.352,224.056,360,248,360c23.944,0,47.352,8.352,65.896,23.52l7.824,6.4l-47.952,52.312
				c-6.296,6.872-9.768,15.784-9.768,25.112C264,483.152,276.848,496,292.656,496c9.856,0,18.896-4.96,24.176-13.272l40.512-63.648
				l3.816,3.128c7.736,6.312,17.488,9.792,27.464,9.792C412.536,432,432,412.536,432,388.624c0-7.408-1.936-14.68-5.512-21.112
				l59.792-65.744c6.264-6.88,9.72-15.808,9.72-25.12C496,260.848,483.152,248,467.152,248z M474.136,192.664
				c3.68,2.336,5.864,6.328,5.864,10.68c0,6.976-5.68,12.656-12.656,12.656c-5.344,0-10.472-1.96-14.44-5.528l-67.032-60.192
				c4.264-1.392,8.112-3.616,11.384-6.536L474.136,192.664z M388.624,80C403.72,80,416,92.28,416,107.376
				c0,6.296-2.192,12.456-6.184,17.328l-3.112,3.808c0.76-2.728,1.296-5.544,1.296-8.512c0-11.824-6.52-22.056-16.08-27.592
				l-11.952-10.952C382.752,80.528,385.664,80,388.624,80z M376,104c8.816,0,16,7.184,16,16s-7.184,16-16,16
				c-8.824,0-16-7.176-16-16C360,111.176,367.176,104,376,104z M269.968,39.2C266.232,36.904,264,32.912,264,28.528
				C264,21.624,269.624,16,276.528,16c5.392,0,10.544,2.008,14.512,5.648l74.464,68.256c-2.608,0.912-5.12,2.032-7.376,3.552
				L269.968,39.2z M192.664,21.856C195,18.184,198.992,16,203.344,16C210.32,16,216,21.68,216,28.656
				c0,5.344-1.96,10.472-5.528,14.44l-60.192,67.032c-1.392-4.264-3.616-8.112-6.544-11.384L192.664,21.856z M39.2,226.032
				C36.904,229.768,32.912,232,28.528,232C21.624,232,16,226.376,16,219.472c0-5.392,2.008-10.544,5.648-14.512l68.256-74.464
				c0.912,2.608,2.032,5.12,3.552,7.376L39.2,226.032z M92.408,104.08l-10.952,11.952c-0.928-2.784-1.456-5.696-1.456-8.656
				C80,92.28,92.28,80,107.376,80c6.296,0,12.456,2.192,17.328,6.184l3.808,3.112C125.776,88.536,122.968,88,120,88
				C108.176,88,97.944,94.52,92.408,104.08z M120,104c8.816,0,16,7.184,16,16s-7.184,16-16,16c-8.824,0-16-7.176-16-16
				C104,111.184,111.176,104,120,104z M21.856,303.328C18.184,301,16,297.008,16,292.656C16,285.68,21.68,280,28.656,280
				c5.312,0,10.384,1.976,14.296,5.56l66.016,60.512c-3.816,1.408-7.256,3.52-10.232,6.184L21.856,303.328z M107.376,416
				C92.28,416,80,403.72,80,388.624c0-6.296,2.192-12.456,6.176-17.328l3.112-3.808C88.536,370.216,88,373.032,88,376
				c0,11.048,5.624,20.8,14.16,26.552l13.344,12.136C112.88,415.504,110.152,416,107.376,416z M120,392c-8.824,0-16-7.176-16-16
				c0-8.824,7.176-16,16-16c8.816,0,16,7.176,16,16C136,384.824,128.816,392,120,392z M226.28,456.568
				c3.576,2.352,5.72,6.304,5.72,10.776c0,6.976-5.68,12.656-12.656,12.656c-5.32,0-10.424-1.968-14.352-5.552l-74.984-68.208
				c3.912-1.296,7.456-3.304,10.536-5.912L226.28,456.568z M303.336,474.144C301,477.816,297.008,480,292.656,480
				C285.68,480,280,474.32,280,467.344c0-5.312,1.976-10.384,5.56-14.296l60.512-66.016c1.408,3.816,3.52,7.256,6.184,10.232
				L303.336,474.144z M347.44,361.856l-14.888,16.248l-8.528-6.968C302.624,353.64,275.624,344,248,344
				c-27.624,0-54.624,9.64-76.032,27.144l-20.8,17.024l-1.328-0.872c1.336-3.528,2.16-7.304,2.16-11.296
				c0-12.552-7.32-23.32-17.864-28.56l-16.248-14.896l6.976-8.52C142.36,302.624,152,275.624,152,248
				c0-27.624-9.64-54.624-27.136-76.024l-19.184-23.448l0.032-0.048c4.32,2.176,9.128,3.52,14.288,3.52
				c9.984,0,18.8-4.688,24.672-11.872l0.088,0.08l19.472-21.68l7.744,6.336C193.376,142.36,220.376,152,248,152
				c27.624,0,54.624-9.64,76.024-27.144l23.448-19.176l0.048,0.032c-2.176,4.32-3.52,9.128-3.52,14.288
				c0,9.984,4.688,18.8,11.872,24.672l-0.08,0.088l21.68,19.472l-6.336,7.744C353.64,193.376,344,220.376,344,248
				c0,27.624,9.64,54.624,27.144,76.032l17.024,20.8l-0.872,1.328c-3.528-1.336-7.304-2.16-11.296-2.16
				C363.448,344,352.68,351.32,347.44,361.856z M360,376c0-8.824,7.176-16,16-16c8.816,0,16,7.176,16,16c0,8.824-7.184,16-16,16
				C367.176,392,360,384.824,360,376z M388.624,416c-6.296,0-12.456-2.192-17.336-6.184l-3.8-3.104
				c2.728,0.752,5.544,1.288,8.512,1.288c11.048,0,20.8-5.624,26.552-14.168l12.136-13.336c0.816,2.624,1.312,5.352,1.312,8.128
				C416,403.72,403.72,416,388.624,416z M474.448,291.008l-68.208,74.984c-1.296-3.912-3.304-7.456-5.912-10.536l56.24-85.736
				c2.352-3.576,6.304-5.72,10.776-5.72c6.976,0,12.656,5.68,12.656,12.656C480,281.976,478.032,287.08,474.448,291.008z"/>
			<path d="M248,176c-39.704,0-72,32.296-72,72s32.296,72,72,72c39.704,0,72-32.296,72-72C320,208.296,287.704,176,248,176z
				 M248,304c-30.872,0-56-25.128-56-56s25.128-56,56-56s56,25.128,56,56S278.872,304,248,304z"/>
		</g>
	</g>
</g>
<g>
</g>
<g>
</g>
<g>
</g>
<g>
</g>
<g>
</g>
<g>
</g>
<g>
</g>
<g>
</g>
<g>
</g>
<g>
</g>
<g>
</g>
<g>
</g>
<g>
</g>
<g>
</g>
<g>
</g>
</svg>
